<svg version="1.1" xmlns="http://www.w3.org/2000/svg" xmlns:xlink="http://www.w3.org/1999/xlink" width="34.54158" height="34.65095" viewBox="0,0,34.54158,34.65095"><g transform="translate(-222.80715,-162.50076)"><g data-paper-data="{&quot;isPaintingLayer&quot;:true}" fill-opacity="0.00784" fill="#ff0000" fill-rule="nonzero" stroke="none" stroke-width="0" stroke-linecap="butt" stroke-linejoin="miter" stroke-miterlimit="10" stroke-dasharray="" stroke-dashoffset="0" style="mix-blend-mode: normal"><path d="M222.80715,192.28166v-24.69231h4.92308v24.69231z"/><path d="M227.70101,197.15171v-4.76923h24.69231v4.76923z"/><path d="M252.42565,192.14664v-24.61538h4.92308v24.61538z"/><path d="M227.58155,167.57768v-5.07692h24.92308v5.07692z"/><path d="M225.12001,170.26999v-5.30769h5v5.30769z"/><path d="M247.49749,172.88538v-7.69231h7.34266v7.69231z"/><path d="M249.93864,194.77674v-4.92308h4.92308v4.92308z"/><path d="M225.16941,194.69981v-7.15385h7.53846v7.15385z"/><path d="M244.91293,175.04997v-5.23077h5v5.23077z"/><path d="M242.45139,177.74227v-5.23077h5v5.23077z"/><path d="M239.91293,180.04997v-5.23077h5v5.23077z"/><path d="M237.5,182.61539v-5.23077h5v5.23077z"/><path d="M234.96154,185.23077v-5.23077h5v5.23077z"/><path d="M232.57692,187.53846v-5.23077h5v5.23077z"/><path d="M229.96154,190v-5.23077h5v5.23077z"/></g></g></svg>